<?xml version="1.0" encoding="utf-8"?>
<!-- Generator: Adobe Illustrator 25.1.0, SVG Export Plug-In . SVG Version: 6.00 Build 0)  -->
<svg version="1.1" id="Capa_1" xmlns="http://www.w3.org/2000/svg" xmlns:xlink="http://www.w3.org/1999/xlink" x="0px" y="0px"
	 viewBox="0 0 612 612" style="enable-background:new 0 0 612 612;" xml:space="preserve">
<style type="text/css">
	.st0{fill:#FFFFFF;}
</style>
<g>
	<path class="st0" d="M523.8,457.9c-5.7-77.8-42.7-127.3-72.7-155c-3.5-3.2-6.9-6.2-10.3-9c0-111.9-35.7-185.5-65.6-227.5
		c-32.6-45.8-65-64.8-66.3-65.6c-1.8-1-3.9-1-5.7,0c-1.4,0.8-33.7,19.8-66.3,65.6c-29.9,42.1-65.6,115.7-65.6,227.5
		c-3.4,2.8-6.8,5.8-10.3,9c-30,27.8-67,77.2-72.7,155c-0.2,2.5,0.7,5,2.4,6.9c1.7,1.9,4.2,2.9,6.7,2.9h115.1
		c6.6,12.5,13.4,22.6,20,29.3c1.1,1.1,2.5,1.7,4,1.7h2.8c4.2,60.2,52.3,106.4,54.4,108.4c3.4,3.3,7.8,4.9,12.3,4.9s8.8-1.6,12.3-4.9
		c2.1-2,50.2-48.2,54.4-108.4h2.8c1.5,0,3-0.6,4-1.7c6.6-6.7,13.4-16.8,20-29.3h115.1c2.5,0,5-1.1,6.7-2.9
		C523.1,462.9,523.9,460.4,523.8,457.9z M306,156.8c27.8,0,50.3,22.5,50.3,50.3s-22.5,50.3-50.3,50.3c-27.8,0-50.3-22.5-50.3-50.3
		C255.7,179.3,278.2,156.8,306,156.8z M306,567.3c-11.8-14.9-28.1-40.2-30.9-68.6h61.8C334.1,527.2,317.8,552.5,306,567.3z"/>
</g>
</svg>
